<svg width="146" height="59" viewBox="0 0 146 59" fill="none" xmlns="http://www.w3.org/2000/svg">
<g clip-path="url(#clip0_8113_142)">
<path d="M70.629 14.9688H65.8395V10.6928H80.9334V14.9688H76.144V27.0485H70.6309V14.9688H70.629Z" fill="#001F3B"/>
<path d="M83.5271 10.6928H89.0402V27.0485H83.5271V10.6928Z" fill="#001F3B"/>
<path d="M92.871 10.6928H100.932C102.755 10.6928 104.363 11.0243 105.758 11.6855C107.152 12.3486 108.234 13.294 109.005 14.5236C109.776 15.755 110.161 17.2025 110.161 18.8697C110.161 20.5369 109.774 21.9843 109.005 23.2158C108.234 24.4472 107.15 25.3926 105.758 26.0538C104.363 26.7169 102.755 27.0466 100.932 27.0466H92.871V10.6928ZM100.699 22.7497C101.883 22.7497 102.829 22.4106 103.537 21.7342C104.246 21.056 104.6 20.103 104.6 18.8716C104.6 17.6401 104.246 16.6871 103.537 16.0089C102.829 15.3306 101.882 14.9934 100.699 14.9934H98.3861V22.7497H100.699Z" fill="#001F3B"/>
<path d="M124.249 24.1972H118.034L116.936 27.0466H111.328L118.478 10.6909H123.898L131.048 27.0466H125.347L124.249 24.1972ZM122.731 20.2262L121.142 16.1131L119.552 20.2262H122.729H122.731Z" fill="#001F3B"/>
<path d="M133.104 10.6928H138.617V22.7725H146V27.0485H133.104V10.6928Z" fill="#001F3B"/>
<path d="M68.2437 33.0296V39.454H76.701V40.9488H68.2437V47.8885H66.514V31.5329H77.7298V33.0277H68.2437V33.0296Z" fill="#001F3B"/>
<path d="M81.3048 31.5329H83.0345V47.8885H81.3048V31.5329Z" fill="#001F3B"/>
<path d="M88.3601 31.5329H90.0898V46.3919H99.2481V47.8867H88.3601V31.531V31.5329Z" fill="#001F3B"/>
<path d="M119.107 31.5329V47.8885H117.447V34.8048L111.023 45.8083H110.204L103.78 34.8749V47.8885H102.12V31.5329H103.545L110.648 43.658L117.68 31.5329H119.105H119.107Z" fill="#001F3B"/>
<path d="M0 0.25V58.229H57.979V0.25H0ZM40.0395 23.625L56.8423 13.9211V28.5736H41.3695C41.2766 26.8325 40.8314 25.171 40.0395 23.625ZM56.8423 34.8237C54.5139 37.0782 52.1457 38.9823 49.8002 40.4884L40.0414 34.8559C40.8333 33.3062 41.2785 31.6428 41.3695 29.9036H56.8423V34.8237ZM36.4436 46.2251C45.6512 46.2251 53.7352 39.5828 56.8423 36.6614V46.5055C48.8056 49.0026 40.5529 48.8131 33.7647 46.0338C34.6665 46.1645 35.5608 46.227 36.4455 46.227L36.4436 46.2251ZM28.3255 41.6195V42.8168C28.1493 42.7354 27.9731 42.6558 27.7988 42.5762C26.6829 42.0666 25.6238 41.5854 24.6709 40.8636C25.8379 41.2993 27.0618 41.5532 28.3255 41.6195ZM34.604 40.2895L37.2375 44.8516C34.4866 44.9577 31.8759 44.4651 29.6536 43.4174V41.6195C31.3928 41.5285 33.0562 41.0814 34.604 40.2895ZM35.7521 39.6245C37.1901 38.6848 38.4348 37.4401 39.3764 35.9983L48.5176 41.2747C45.2438 43.1901 41.8659 44.3836 38.7076 44.7379L35.754 39.6226L35.7521 39.6245ZM37.5463 36.328C35.7237 38.5692 33.0562 39.9352 29.8373 40.2762C26.9652 40.5074 24.057 39.5677 21.8499 37.694C19.8928 34.8446 19.6768 31.4666 20.6033 29.9623C21.3137 28.8085 22.6683 28.3633 24.6292 28.6361C26.0406 28.8407 27.5108 29.1041 28.6589 29.8524V29.8657L28.7991 29.9471C28.8256 29.9623 28.8522 29.9793 28.8768 29.9964C28.8787 29.9964 28.8825 30.0002 28.8844 30.0002L29.0321 30.0968C29.125 30.1574 29.1799 30.1953 29.2803 30.2578L29.7388 30.542L29.7142 30.0021C29.7066 29.8221 29.6933 29.733 29.682 29.6459C29.6744 29.5947 29.6687 29.5417 29.6611 29.4659C29.6555 27.291 27.9466 20.211 27.1281 18.3184C27.8632 18.1933 28.6116 18.1441 29.3542 18.1687C32.5863 18.3695 35.3069 19.6161 37.2261 21.7759C38.9426 23.7084 39.922 26.2717 39.9808 28.9942C40.0395 31.7148 39.1756 34.3179 37.5463 36.3223V36.328ZM18.4226 16.7591C18.3961 16.7591 18.3715 16.7591 18.3431 16.7591C11.6989 16.7591 4.49199 22.3197 1.13484 27.8101V19.1501C7.15762 12.97 13.6844 10.0941 18.6121 11.4544C22.3292 12.4812 25.1275 15.8498 26.7719 21.2436C24.7107 18.324 21.8556 16.7819 18.4207 16.7591H18.4226ZM9.80621 31.0384C11.4962 25.8719 15.5865 22.0563 19.7507 21.7608C22.3917 21.5713 24.7126 22.8009 26.4385 25.2505C26.3495 25.1804 26.2585 25.1122 26.1676 25.0459L25.9705 24.9038C24.3564 23.7349 21.9427 23.3768 20.6677 23.7785C19.4646 24.1574 18.8375 24.451 18.0494 25.0042H18.0229L17.9585 25.0687C14.1561 27.7798 12.5059 33.2114 13.9496 38.2983C17.4204 48.8567 28.7688 53.6707 37.6675 57.0942H20.1997C15.1261 52.7727 11.7121 48.0894 10.0506 43.173C8.65053 39.0277 8.56528 34.8313 9.80621 31.0403V31.0384ZM1.13673 30.4776C1.25798 30.2541 1.3906 30.0191 1.54027 29.7615C3.35147 26.6203 5.94511 23.6705 8.66379 21.6641C12.487 18.6329 17.2196 17.4488 21.0182 18.5741C23.3428 19.2618 25.171 20.7756 26.3911 22.9998C26.2093 22.8141 26.0217 22.6379 25.8285 22.4712C22.0943 19.1558 16.4845 20.4497 13.0989 23.3522C10.0411 26.0462 8.06512 30.2484 7.67863 34.8806C7.35276 39.0448 8.30572 43.2772 10.5091 47.4604C12.3317 50.9198 14.9802 54.2372 18.1934 57.0923H1.13673V30.4776ZM19.1994 44.7493C15.6509 40.9166 14.2338 36.6671 14.9859 32.1278C15.6566 28.6077 17.9926 25.7886 20.7984 25.1122C21.2171 25.0118 21.6358 24.9626 22.0507 24.9626C23.879 24.9626 25.6447 25.9288 27.1376 27.7684C23.7937 26.787 21.38 27.4217 20.1884 28.4106C18.5742 29.752 18.5496 31.9288 18.8129 33.5146C19.709 39.4635 24.5856 42.8036 29.2292 45.2817C33.3783 47.7105 37.9706 49.1257 42.8775 49.4914C47.3032 49.821 51.9998 49.2981 56.8461 47.9378V57.0904C54.7659 57.0734 52.8959 57.1075 51.2401 57.1378C43.929 57.2742 39.5147 57.3556 31.1218 52.9319C25.8285 50.3704 21.9314 47.6934 19.2032 44.7493H19.1994ZM56.8423 12.3903L39.3745 22.4769C38.4348 21.0389 37.1901 19.7942 35.7502 18.8526L45.8349 1.38673H56.8423V12.3903ZM26.5313 17.0869C24.7012 13.3603 21.848 10.8008 18.6651 10.0335L13.673 1.38673H28.3236V16.8577C27.7192 16.8899 27.1167 16.9675 26.5313 17.085V17.0869ZM1.13673 12.3941V1.38673H12.1403L16.9695 9.75119C13.2335 9.43101 9.07112 10.9902 4.58671 14.3872L1.13484 12.3941H1.13673ZM3.46703 15.2719C2.68648 15.9104 1.90592 16.5943 1.13673 17.3161V13.9287L3.46703 15.2738V15.2719ZM29.6498 1.38673H44.3022L34.604 18.1857C33.0543 17.3938 31.3909 16.9486 29.6517 16.8577V1.38673H29.6498Z" fill="#001F3B"/>
</g>
<defs>
<clipPath id="clip0_8113_142">
<rect width="146" height="57.979" fill="white" transform="translate(0 0.25)"/>
</clipPath>
</defs>
</svg>
