<svg width="25" height="25" viewBox="0 0 25 25" fill="none" xmlns="http://www.w3.org/2000/svg">
<path d="M12.98 2.56339C16.184 2.56339 16.564 2.57539 17.83 2.63339C21.082 2.78139 22.601 4.32439 22.749 7.55239C22.807 8.81739 22.818 9.19739 22.818 12.4014C22.818 15.6064 22.806 15.9854 22.749 17.2504C22.6 20.4754 21.085 22.0214 17.83 22.1694C16.564 22.2274 16.186 22.2394 12.98 22.2394C9.77602 22.2394 9.39602 22.2274 8.13102 22.1694C4.87102 22.0204 3.36002 20.4704 3.21202 17.2494C3.15402 15.9844 3.14202 15.6054 3.14202 12.4004C3.14202 9.19639 3.15502 8.81739 3.21202 7.55139C3.36102 4.32439 4.87602 2.78039 8.13102 2.63239C9.39702 2.57539 9.77602 2.56339 12.98 2.56339ZM12.98 0.400391C9.72102 0.400391 9.31302 0.414391 8.03302 0.472391C3.67502 0.672391 1.25302 3.09039 1.05302 7.45239C0.994019 8.73339 0.980019 9.14139 0.980019 12.4004C0.980019 15.6594 0.994019 16.0684 1.05202 17.3484C1.25202 21.7064 3.67002 24.1284 8.03202 24.3284C9.31302 24.3864 9.72102 24.4004 12.98 24.4004C16.239 24.4004 16.648 24.3864 17.928 24.3284C22.282 24.1284 24.71 21.7104 24.907 17.3484C24.966 16.0684 24.98 15.6594 24.98 12.4004C24.98 9.14139 24.966 8.73339 24.908 7.45339C24.712 3.09939 22.291 0.673391 17.929 0.473391C16.648 0.414391 16.239 0.400391 12.98 0.400391ZM12.98 6.23839C9.57702 6.23839 6.81802 8.99739 6.81802 12.4004C6.81802 15.8034 9.57702 18.5634 12.98 18.5634C16.383 18.5634 19.142 15.8044 19.142 12.4004C19.142 8.99739 16.383 6.23839 12.98 6.23839ZM12.98 16.4004C10.771 16.4004 8.98002 14.6104 8.98002 12.4004C8.98002 10.1914 10.771 8.40039 12.98 8.40039C15.189 8.40039 16.98 10.1914 16.98 12.4004C16.98 14.6104 15.189 16.4004 12.98 16.4004ZM19.386 4.55539C18.59 4.55539 17.945 5.20039 17.945 5.99539C17.945 6.79039 18.59 7.43539 19.386 7.43539C20.181 7.43539 20.825 6.79039 20.825 5.99539C20.825 5.20039 20.181 4.55539 19.386 4.55539Z" fill="#F7F7FF"/>
</svg>
