<svg width="146" height="58" viewBox="0 0 146 58" fill="none" xmlns="http://www.w3.org/2000/svg">
<g clip-path="url(#clip0_8042_3184)">
<path d="M70.629 14.7188H65.8395V10.4428H80.9335V14.7188H76.144V26.7985H70.6309V14.7188H70.629Z" fill="#001F3B"/>
<path d="M83.5271 10.4428H89.0403V26.7985H83.5271V10.4428Z" fill="#001F3B"/>
<path d="M92.871 10.4428H100.932C102.755 10.4428 104.363 10.7743 105.758 11.4355C107.152 12.0986 108.234 13.044 109.005 14.2736C109.776 15.505 110.161 16.9525 110.161 18.6197C110.161 20.2869 109.774 21.7343 109.005 22.9658C108.234 24.1972 107.15 25.1426 105.758 25.8038C104.363 26.465 102.755 26.7966 100.932 26.7966H92.871V10.4428ZM100.699 22.4997C101.883 22.4997 102.829 22.1606 103.537 21.4842C104.246 20.806 104.6 19.853 104.6 18.6216C104.6 17.3901 104.246 16.4371 103.537 15.7589C102.829 15.0806 101.882 14.7434 100.699 14.7434H98.3861V22.4997H100.699Z" fill="#001F3B"/>
<path d="M124.249 23.9472H118.034L116.936 26.7966H111.328L118.478 10.4409H123.898L131.048 26.7966H125.347L124.249 23.9472ZM122.731 19.9762L121.142 15.8631L119.552 19.9762H122.729H122.731Z" fill="#001F3B"/>
<path d="M133.104 10.4428H138.617V22.5225H146V26.7985H133.104V10.4428Z" fill="#001F3B"/>
<path d="M68.2437 32.7777V39.2021H76.701V40.6969H68.2437V47.6367H66.514V31.281H77.7298V32.7758H68.2437V32.7777Z" fill="#001F3B"/>
<path d="M81.3048 31.2829H83.0345V47.6385H81.3048V31.2829Z" fill="#001F3B"/>
<path d="M88.3601 31.2829H90.0898V46.1419H99.2481V47.6367H88.3601V31.281V31.2829Z" fill="#001F3B"/>
<path d="M119.107 31.2829V47.6386H117.447V34.5548L111.023 45.5602H110.204L103.78 34.6268V47.6404H102.12V31.2848H103.545L110.648 43.4118L117.68 31.2848H119.105L119.107 31.2829Z" fill="#001F3B"/>
<path d="M27.5696 22.8597C21.1698 10.4598 5.7405 19.459 0.862027 28.6115H0.852554V18.7845C11.0737 8.23941 23.6308 6.12699 27.5696 22.8597Z" fill="#1C4062"/>
<path d="M27.5317 24.6614C26.9443 23.7274 26.3002 23.0018 25.6409 22.4334C22.0716 19.2638 16.6456 20.4365 13.2884 23.3144C10.1037 26.1202 8.32089 30.3678 7.96281 34.6514C7.28078 43.3777 12.4453 51.5698 18.9531 57.1265H0.852554V30.1556C0.994646 29.8904 1.14242 29.6289 1.29399 29.3694C3.09002 26.2547 5.66662 23.2727 8.48761 21.1906C14.876 16.1245 24.5421 15.7665 27.5317 24.6614Z" fill="#287F8C"/>
<path d="M39.2021 57.1265H20.0936C-5.9811 35.0114 19.5272 10.0108 27.7022 26.5901C27.1414 25.9592 26.556 25.4192 25.8834 24.9418H25.8815C25.8815 24.9418 25.8796 24.9418 25.8796 24.9399C25.8777 24.9399 25.8777 24.938 25.8758 24.938C24.3791 23.8127 21.9825 23.411 20.7511 23.7994C19.5196 24.1878 18.9304 24.472 18.1385 25.0384C18.1366 25.0384 18.1366 25.0403 18.1347 25.0403C14.1087 27.8992 12.9228 33.3972 14.2167 37.9593C17.7273 48.637 29.2083 53.3109 39.2021 57.1284V57.1265Z" fill="#67B2AF"/>
<path d="M57.1265 47.3108V57.1265C45.8046 57.0071 41.4718 58.4602 30.993 52.9376C22.4107 48.7847 12.9966 42.1387 14.7055 31.8228C15.9389 25.3434 22.6702 21.2948 27.5127 27.5335C27.4786 27.5032 27.4445 27.471 27.4104 27.4388C27.598 27.6453 27.7761 27.8537 27.939 28.0792C23.3845 26.4233 18.0835 27.1338 19.0914 33.221C19.9553 38.9558 24.6349 42.258 29.3694 44.7853C37.9328 49.7983 47.6215 50.0541 57.1265 47.3108Z" fill="#ACC6C1"/>
<path d="M57.1265 35.7445V46.462C48.7128 49.1239 39.2343 49.1258 31.3094 44.9502C40.7026 47.7409 50.6414 42.0686 57.1265 35.7445Z" fill="#CCD3C8"/>
<path d="M29.8601 40.3085C26.8534 40.551 23.8828 39.5545 21.6377 37.6353C19.1521 34.0451 18.2616 27.2096 24.6709 28.1057C26.1183 28.316 27.7041 28.5888 28.9431 29.4527C28.998 29.4868 29.0473 29.5209 29.1004 29.5532C29.25 29.6536 29.305 29.6915 29.43 29.7691C29.4167 29.4849 29.394 29.4489 29.377 29.2311C29.377 26.861 27.3195 18.7239 26.7018 17.8638C27.5677 17.6857 28.4752 17.608 29.3675 17.6402C43.5842 18.5193 44.0465 38.8043 29.8601 40.3085Z" fill="#E06B38"/>
<path d="M28.6097 41.0967V43.0139C27.1186 42.3035 25.6106 41.7332 24.3147 40.695C23.9396 40.3938 23.5853 40.0603 23.2424 39.7023L23.2651 39.6625C24.866 40.5245 26.6829 41.036 28.6097 41.0967Z" fill="#E06B38"/>
<path d="M37.7168 44.8611C34.856 45.0392 31.9498 44.6016 29.3694 43.3455V41.0967C31.2961 41.0379 33.113 40.5245 34.7139 39.6606L37.7168 44.8611Z" fill="#E06B38"/>
<path d="M49.0784 41.0228C45.8785 42.9609 42.258 44.414 38.5523 44.7929L35.3694 39.2817C36.9552 38.2965 38.2965 36.9533 39.2817 35.3675L49.0784 41.0228Z" fill="#E08344"/>
<path d="M57.1265 29.3656V34.6931C55.3153 36.4531 52.8126 38.6603 49.8078 40.57L39.6625 34.7139C40.5245 33.113 41.0379 31.2961 41.0967 29.3675H57.1265V29.3656Z" fill="#DD9145"/>
<path d="M57.1265 13.1785V28.6078H41.0967C41.036 26.6829 40.5245 24.866 39.6606 23.2651L57.1265 13.1785Z" fill="#D8A750"/>
<path d="M57.1265 0.852539V12.3051L39.2817 22.6096C38.2965 21.0239 36.9552 19.6825 35.3694 18.6954L45.6701 0.852539H57.1265Z" fill="#E5CA57"/>
<path d="M3.9672 14.9821C2.90057 15.8347 1.84341 16.7706 0.852554 17.7273V13.1842L3.9672 14.9821Z" fill="#D8A750"/>
<path d="M44.7948 0.852539L34.7139 18.3146C33.113 17.4526 31.2961 16.9392 29.3675 16.8805V0.852539H44.7948Z" fill="#EFD873"/>
<path d="M28.6097 16.8805C27.8443 16.9051 27.0959 16.9998 26.3722 17.1609C24.7846 13.8245 22.081 10.8463 18.4795 10.0317L13.1804 0.852539H28.6078V16.8805H28.6097Z" fill="#EFD873"/>
<path d="M17.4981 9.84599C13.6768 9.3193 9.27763 10.905 4.60945 14.4782L0.852554 12.3089V0.852539H12.3051L17.4981 9.84599Z" fill="#E5CA57"/>
<path d="M0 0V57.979H57.979V0H0ZM40.0395 23.375L56.8423 13.6711V28.3236H41.3695C41.2766 26.5825 40.8314 24.921 40.0395 23.375ZM56.8423 34.5737C54.5139 36.8282 52.1457 38.7323 49.8002 40.2384L40.0414 34.6059C40.8333 33.0562 41.2785 31.3928 41.3695 29.6536H56.8423V34.5756V34.5737ZM36.4436 45.9751C45.6512 45.9751 53.7352 39.3328 56.8423 36.4114V46.2555C48.8056 48.7526 40.5529 48.5631 33.7628 45.7838C34.6647 45.9164 35.5589 45.977 36.4436 45.977V45.9751ZM28.3255 41.3695V42.5668C28.1493 42.4854 27.975 42.4058 27.7988 42.3262C26.6829 41.8166 25.6238 41.3354 24.6709 40.6136C25.8379 41.0493 27.0618 41.3032 28.3255 41.3695ZM34.604 40.0395L37.2375 44.6016C34.4885 44.7096 31.8778 44.2151 29.6536 43.1674V41.3695C31.3928 41.2785 33.0562 40.8314 34.604 40.0395ZM35.7521 39.3745C37.1901 38.4348 38.4348 37.1901 39.3764 35.7483L48.5176 41.0247C45.2438 42.9401 41.8659 44.1336 38.7076 44.4879L35.754 39.3726L35.7521 39.3745ZM37.5463 36.078C35.7237 38.3192 33.0562 39.6852 29.8373 40.0262C26.969 40.2574 24.057 39.3177 21.8499 37.444C19.8928 34.5946 19.6768 31.2166 20.6033 29.7142C21.3137 28.5604 22.6702 28.1152 24.6292 28.388C26.0406 28.5926 27.5108 28.8578 28.6589 29.6043V29.6176L28.7991 29.699C28.8218 29.7123 28.8446 29.7274 28.8673 29.7407L29.0378 29.8525C29.1269 29.9112 29.1818 29.9472 29.2784 30.0078L29.7369 30.2939L29.7123 29.754C29.7047 29.574 29.6915 29.4849 29.6801 29.3978C29.6725 29.3466 29.6668 29.2936 29.6592 29.2178C29.6536 27.0429 27.9447 19.9629 27.1262 18.0703C27.8613 17.9452 28.6078 17.8941 29.3523 17.9206C32.5844 18.1214 35.305 19.368 37.2242 21.5278C38.9407 23.4603 39.9201 26.0236 39.9789 28.7461C40.0395 31.4666 39.1737 34.0698 37.5444 36.0742L37.5463 36.078ZM18.4226 16.5091C18.3961 16.5091 18.3715 16.5091 18.3431 16.5091C11.6989 16.5091 4.49199 22.0697 1.13484 27.5601V18.9001C7.15762 12.72 13.6844 9.8441 18.6121 11.2044C22.3292 12.2293 25.1256 15.5979 26.7719 20.9936C24.7107 18.074 21.8556 16.5319 18.4207 16.5091H18.4226ZM9.80621 30.7884C11.4962 25.6219 15.5865 21.8063 19.7507 21.5089C22.3879 21.3232 24.7126 22.549 26.4385 25.0005C26.3495 24.9304 26.2585 24.8622 26.1676 24.794L25.9705 24.6519C24.3564 23.483 21.9427 23.1249 20.6677 23.5266C19.4646 23.9055 18.8375 24.1991 18.0494 24.7523H18.021L17.9566 24.8168C14.1561 27.5279 12.5078 32.9596 13.9496 38.0445C17.4204 48.6029 28.7688 53.4169 37.6675 56.8404H20.1997C15.1261 52.5189 11.7121 47.8356 10.0506 42.9192C8.65053 38.7739 8.56528 34.5794 9.80621 30.7865V30.7884ZM1.13673 30.2276C1.25798 30.0041 1.38871 29.7691 1.54027 29.5115C3.35147 26.3703 5.94511 23.4205 8.66379 21.4141C12.4851 18.3829 17.2196 17.1988 21.0182 18.3241C23.3428 19.0137 25.171 20.5256 26.3911 22.7498C26.2093 22.5641 26.0217 22.3879 25.8285 22.2212C22.0943 18.9058 16.4845 20.1997 13.0989 23.1022C10.0411 25.7962 8.06512 29.9984 7.67863 34.6306C7.35276 38.7948 8.30572 43.0272 10.5091 47.2123C12.3317 50.6717 14.9802 53.9891 18.1934 56.8442H1.13673V30.2295V30.2276ZM19.1994 44.4993C15.6509 40.6666 14.2338 36.4171 14.9859 31.8778C15.6566 28.3577 17.9926 25.5386 20.7984 24.8622C21.2171 24.7618 21.6358 24.7126 22.0507 24.7126C23.879 24.7126 25.6447 25.6788 27.1376 27.5184C23.7937 26.537 21.38 27.1717 20.1884 28.1606C18.5742 29.502 18.5496 31.6788 18.8129 33.2646C19.709 39.2135 24.5856 42.5536 29.2292 45.0317C33.3783 47.4605 37.9706 48.8757 42.8775 49.2414C47.3032 49.5691 51.9998 49.0481 56.8461 47.6878V56.8404C54.7659 56.8234 52.8978 56.8575 51.2401 56.8878C43.9271 57.0242 39.5147 57.1056 31.1218 52.6819C25.8285 50.1204 21.9314 47.4434 19.2032 44.4993H19.1994ZM56.8423 12.1403L39.3745 22.2269C38.4348 20.7889 37.1901 19.5423 35.7502 18.6007L45.8349 1.13673H56.8423V12.1403ZM26.5313 16.8369C24.7012 13.1103 21.848 10.5508 18.6651 9.78348L13.673 1.13673H28.3236V16.6077C27.7192 16.6399 27.1167 16.7175 26.5313 16.835V16.8369ZM1.13673 12.1441V1.13673H12.1403L16.9695 9.50119C13.2335 9.18101 9.07112 10.7402 4.58671 14.1372L1.13484 12.1441H1.13673ZM3.46703 15.0219C2.68648 15.6604 1.90592 16.3443 1.13673 17.0661V13.6787L3.46703 15.0238V15.0219ZM29.6498 1.13673H44.3022L34.604 17.9357C33.0543 17.1438 31.3909 16.6986 29.6517 16.6077V1.13673H29.6498Z" fill="#001F3B"/>
</g>
<defs>
<clipPath id="clip0_8042_3184">
<rect width="146" height="57.979" fill="white"/>
</clipPath>
</defs>
</svg>
