<svg xmlns="http://www.w3.org/2000/svg" width="225.991" height="59" fill="none" viewBox="-4 0.2 225.991 59"><path fill="#74f4bb" stroke="#2b2b2b" stroke-width="2" d="M38.258 32.51c2.686-5.935 3.91-10.12 4.397-13.292.494-3.222.218-5.355-.009-7.11v-.002c-.059-.456-.112-.87-.15-1.274-.188-2.032-1.07-4.408-2.652-6.293C38.245 2.633 35.9 1.2 32.845 1.2c-3.117 0-5.525 1.34-7.582 2.485l-.065.036c-1.923 1.07-3.475 1.909-5.234 1.909s-3.31-.839-5.233-1.909l-.066-.036C12.608 2.54 10.201 1.2 7.083 1.2c-3.056 0-5.4 1.433-6.998 3.339-1.582 1.885-2.465 4.26-2.653 6.293-.038.404-.09.818-.15 1.273v.002c-.227 1.756-.503 3.89-.009 7.11.487 3.173 1.712 7.358 4.398 13.294.22 5.203.82 12.215 1.508 15.106a45.01 45.01 0 0 0 1.992 6.132c.444 1.072.943 2.102 1.469 2.88.262.388.557.753.888 1.032.322.271.774.539 1.327.539 1.309 0 2.277-.804 2.95-1.726.677-.925 1.179-2.124 1.556-3.294.637-1.98.988-4.11 1.16-5.157.031-.192.057-.347.077-.458.601-3.308 1.505-5.776 2.515-7.405 1.03-1.658 2.046-2.266 2.832-2.306.751-.038 1.74.428 2.774 2.031 1.024 1.586 1.962 4.108 2.611 7.68l.066.364c.233 1.302.64 3.583 1.34 5.612.385 1.114.881 2.228 1.536 3.08.654.853 1.577 1.579 2.802 1.579.552 0 1.004-.268 1.326-.54.331-.278.626-.643.889-1.031.526-.778 1.024-1.808 1.468-2.88a45.001 45.001 0 0 0 1.992-6.132c.688-2.891 1.289-9.903 1.509-15.106z"/><path fill="#2b2b2b" stroke="#2b2b2b" d="M23.1 12.86v-.5h-6.315v6.202h-6.202v6.316h6.202v6.202h6.316v-6.202h6.202v-6.316H23.1z"/><path fill="#2b2b2b" d="M213.76 51.419c-1.451 0-2.73-.14-3.834-.42a19.571 19.571 0 0 1-3.058-1.045v-4.51h.434c.95.806 2 1.426 3.147 1.86 1.146.433 2.259.65 3.337.65.272 0 .629-.03 1.07-.09.45-.06.812-.153 1.084-.28.33-.144.61-.344.84-.599.23-.263.344-.607.344-1.032 0-.475-.186-.862-.56-1.16a3.58 3.58 0 0 0-1.338-.649 39.876 39.876 0 0 0-2.077-.484c-.73-.153-1.414-.34-2.051-.56-1.47-.519-2.522-1.215-3.16-2.09-.636-.875-.955-1.97-.955-3.287 0-1.775.752-3.21 2.255-4.306 1.504-1.104 3.38-1.656 5.63-1.656 1.13 0 2.252.114 3.365.344 1.12.229 2.123.539 3.007.93v4.331h-.421c-.705-.603-1.567-1.112-2.586-1.529a8.126 8.126 0 0 0-3.122-.624c-.416 0-.79.03-1.121.09a4.28 4.28 0 0 0-1.044.343c-.298.136-.557.34-.778.612-.212.263-.318.56-.318.892 0 .484.17.87.51 1.159.348.28 1.015.535 2 .764l1.834.42c.595.137 1.228.324 1.899.561 1.316.476 2.293 1.117 2.93 1.924.646.799.968 1.856.968 3.173 0 1.885-.743 3.401-2.23 4.548-1.477 1.147-3.477 1.72-6 1.72zM190.87 51.075V35.723h-5.605v-3.619h15.977v3.619h-5.606v15.352zM171.854 51.419c-1.452 0-2.73-.14-3.834-.42a19.571 19.571 0 0 1-3.058-1.045v-4.51h.433c.95.806 2 1.426 3.147 1.86 1.147.433 2.259.65 3.338.65.272 0 .628-.03 1.07-.09.45-.06.81-.153 1.083-.28a2.41 2.41 0 0 0 .84-.599c.23-.263.345-.607.345-1.032 0-.475-.187-.862-.561-1.16a3.568 3.568 0 0 0-1.337-.649 40.116 40.116 0 0 0-2.077-.484 16.698 16.698 0 0 1-2.051-.56c-1.47-.519-2.523-1.215-3.16-2.09-.637-.875-.955-1.97-.955-3.287 0-1.775.75-3.21 2.255-4.306 1.503-1.104 3.38-1.656 5.63-1.656 1.13 0 2.252.114 3.364.344 1.12.229 2.124.539 3.007.93v4.331h-.42c-.705-.603-1.567-1.112-2.587-1.529a8.12 8.12 0 0 0-3.121-.624c-.416 0-.79.03-1.121.09-.331.059-.68.173-1.045.343-.297.136-.556.34-.777.612-.212.263-.32.56-.32.892 0 .484.17.87.51 1.159.349.28 1.016.535 2 .764l1.836.42c.594.137 1.227.324 1.898.561 1.317.476 2.293 1.117 2.93 1.924.646.799.969 1.856.969 3.173 0 1.885-.743 3.401-2.23 4.548-1.478 1.147-3.478 1.72-6.001 1.72zM158.138 51.075H147.92v-3.313h2.726V35.417h-2.726v-3.313h10.218v3.313h-2.727v12.345h2.727zM131.655 51.075V35.723h-5.606v-3.619h15.977v3.619h-5.606v15.352zM119.467 51.075h-4.586l-7.313-13.225v13.225h-4.358v-18.97h5.848l6.052 10.867V32.104h4.357zM82.46 51.075v-18.97h12.83v3.618H87.2v3.325h7.453v3.618H87.2v4.79h8.09v3.619zM74.936 41.609c0 1.766-.387 3.35-1.16 4.752-.773 1.393-1.75 2.463-2.93 3.21a8.296 8.296 0 0 1-3.223 1.236 24.221 24.221 0 0 1-3.695.268H57.99v-18.97h5.886c1.333 0 2.582.084 3.746.254a8.195 8.195 0 0 1 3.274 1.236c1.248.798 2.234 1.877 2.956 3.236.722 1.35 1.083 2.943 1.083 4.778zm-4.893-.039c0-1.248-.216-2.314-.65-3.197-.424-.892-1.082-1.589-1.974-2.09a4.62 4.62 0 0 0-2.039-.586c-.705-.034-1.55-.05-2.535-.05h-.09V47.52h.09c1.07 0 1.97-.017 2.7-.05a4.373 4.373 0 0 0 2.103-.689 4.736 4.736 0 0 0 1.784-2.038c.407-.867.611-1.924.611-3.173zM221.99 8.285l-5.655 9.333v7.41h-2.226v-7.174l-5.656-9.57h2.474l4.318 7.389 4.385-7.388zM198.382 25.332c-1.094 0-2.103-.184-3.025-.551a6.438 6.438 0 0 1-2.372-1.642c-.667-.727-1.185-1.634-1.552-2.721-.367-1.087-.551-2.335-.551-3.745 0-1.402.176-2.623.529-3.665a7.978 7.978 0 0 1 1.563-2.722 6.612 6.612 0 0 1 2.372-1.709c.915-.397 1.938-.596 3.07-.596.562 0 1.087.041 1.574.124.495.082.952.187 1.372.315.36.112.727.255 1.102.427.382.165.757.349 1.124.551v2.687h-.18c-.194-.18-.446-.397-.753-.652a7.48 7.48 0 0 0-1.124-.753 7.251 7.251 0 0 0-1.395-.574c-.502-.15-1.083-.224-1.743-.224a4.8 4.8 0 0 0-2.024.438 4.789 4.789 0 0 0-1.675 1.293c-.472.57-.84 1.286-1.102 2.148-.262.862-.394 1.833-.394 2.912 0 1.147.139 2.137.416 2.969.278.824.656 1.522 1.136 2.091a4.597 4.597 0 0 0 1.642 1.26 4.91 4.91 0 0 0 2 .416c.646 0 1.242-.079 1.789-.236a6.82 6.82 0 0 0 1.462-.596 8.023 8.023 0 0 0 1.068-.709c.3-.247.536-.457.709-.63h.168v2.654l-1.045.495a9.097 9.097 0 0 1-1.181.461c-.487.158-.941.277-1.361.36-.412.082-.952.124-1.62.124zM183.825 25.028h-2.496l-7.4-14.438v14.438h-2.08V8.285h3.16l6.736 13.257V8.285h2.08zM154.312 25.028V8.285h10.469v1.979h-8.242v4.588h7.68v1.979h-7.68v6.218h8.242v1.979zM141.329 25.354c-1.184 0-2.267-.18-3.25-.54a6.597 6.597 0 0 1-2.53-1.641c-.704-.742-1.244-1.66-1.62-2.755-.373-1.095-.561-2.354-.561-3.778 0-1.35.188-2.557.562-3.621.383-1.072.926-1.987 1.63-2.744.683-.735 1.523-1.3 2.52-1.698.997-.397 2.087-.596 3.272-.596.562 0 1.102.041 1.619.124.517.082 1.012.195 1.484.337.375.113.79.27 1.249.473.464.194.839.363 1.124.506v2.687h-.191c-.278-.247-.566-.48-.866-.697-.292-.225-.708-.465-1.248-.72a7.802 7.802 0 0 0-3.441-.787c-1.612 0-2.916.607-3.913 1.822-.99 1.214-1.484 2.83-1.484 4.846 0 1.125.13 2.107.393 2.946.263.84.64 1.552 1.136 2.137a4.83 4.83 0 0 0 1.732 1.326c.682.3 1.446.45 2.293.45.63 0 1.256-.045 1.878-.135.622-.09 1.147-.225 1.575-.404v-4.33h-3.87v-1.956h6.073v7.309c-.284.127-.667.288-1.146.483-.473.195-.915.349-1.327.461-.548.165-1.042.289-1.485.371a8.932 8.932 0 0 1-1.608.124zM128.38 25.028h-2.89l-5.307-6.657h-2.541v6.657h-2.227V8.285h4.318c.96 0 1.762.052 2.406.157a4.738 4.738 0 0 1 1.856.731 4.143 4.143 0 0 1 1.383 1.45c.345.593.517 1.328.517 2.205 0 1.229-.311 2.256-.933 3.08-.622.825-1.47 1.436-2.542 1.834zm-4.813-12.032a3.07 3.07 0 0 0-.258-1.293 2.188 2.188 0 0 0-.8-.933 3 3 0 0 0-1.101-.439c-.42-.09-.94-.135-1.563-.135h-2.203v6.32h1.956c.637 0 1.21-.056 1.72-.169a2.639 2.639 0 0 0 1.305-.697 2.85 2.85 0 0 0 .708-1.125c.158-.434.236-.944.236-1.529zM97.878 25.028V8.285h10.469v1.979h-8.242v4.588h7.68v1.979h-7.68v6.218h8.242v1.979zM89.876 25.028H87.65V10.601l-4.363 9.817h-1.35L77.608 10.6v14.427h-2.08V8.285h3.036l4.183 9.322 4.037-9.322h3.092zM57.99 25.028V8.285h10.47v1.979h-8.243v4.588h7.68v1.979h-7.68v6.218h8.243v1.979z"/></svg>