<svg width="25" height="23" viewBox="0 0 25 23" fill="none" xmlns="http://www.w3.org/2000/svg">
<path d="M22.6562 11.1665L18.75 11.1665V8.0415C18.75 6.31787 20.1514 4.9165 21.875 4.9165H22.2656C22.915 4.9165 23.4375 4.39404 23.4375 3.74463V1.40088C23.4375 0.751465 22.915 0.229004 22.2656 0.229004L21.875 0.229004C17.5586 0.229004 14.0625 3.7251 14.0625 8.0415V19.7603C14.0625 21.0542 15.1123 22.104 16.4063 22.104H22.6563C23.9502 22.104 25 21.0542 25 19.7603L25 13.5103C25 12.2163 23.9502 11.1665 22.6562 11.1665ZM8.59375 11.1665L4.6875 11.1665L4.6875 8.0415C4.6875 6.31787 6.08887 4.9165 7.8125 4.9165H8.20312C8.85254 4.9165 9.375 4.39404 9.375 3.74463V1.40088C9.375 0.751465 8.85254 0.229004 8.20312 0.229004L7.8125 0.229004C3.49609 0.229004 0 3.7251 0 8.0415L0 19.7603C0 21.0542 1.0498 22.104 2.34375 22.104H8.59375C9.8877 22.104 10.9375 21.0542 10.9375 19.7603V13.5103C10.9375 12.2163 9.8877 11.1665 8.59375 11.1665Z" fill="#E6E9E4"/>
</svg>
