<svg width="57" height="71" viewBox="0 0 57 71" fill="none" xmlns="http://www.w3.org/2000/svg">
<path d="M50.4633 38.7874C53.6524 31.7456 55.101 26.7923 55.6751 23.0488C56.2566 19.2569 55.9325 16.7493 55.6643 14.6738L55.6641 14.6719C55.5944 14.1325 55.5307 13.6387 55.486 13.1554C55.2663 10.7831 54.2336 8.00356 52.3848 5.79988C50.5187 3.5756 47.7901 1.90887 44.2323 1.90887C40.586 1.90887 37.769 3.47657 35.3254 4.83646L35.2588 4.87354C32.9889 6.13662 31.1074 7.15899 28.9666 7.15899C26.8258 7.15899 24.9443 6.13662 22.6744 4.87354L22.6077 4.83644C20.1641 3.47655 17.3471 1.90887 13.7009 1.90887C10.1431 1.90887 7.41451 3.5756 5.54841 5.79988C3.6996 8.00356 2.66687 10.7831 2.44721 13.1554C2.40245 13.6387 2.33876 14.1325 2.26908 14.6718C2.26908 14.6718 2.26908 14.6718 2.26908 14.6718L2.26882 14.6739C2.00065 16.7493 1.67662 19.257 2.25811 23.0488C2.83217 26.7923 4.28076 31.7457 7.46991 38.7874C7.729 44.9585 8.44162 53.2773 9.25459 56.6917C9.66873 58.4311 10.5524 61.3905 11.6056 63.9307C12.1302 65.196 12.7156 66.4034 13.3289 67.3108C13.6345 67.763 13.9736 68.1809 14.3472 68.4955C14.7128 68.8033 15.2066 69.0911 15.8006 69.0911C17.2672 69.0911 18.3664 68.1919 19.1486 67.1218C19.9332 66.0484 20.5199 64.6492 20.9642 63.2701C21.7148 60.9399 22.1274 58.4325 22.3319 57.1895C22.3697 56.9597 22.4004 56.7732 22.4248 56.639C23.14 52.7055 24.2166 49.7558 25.4308 47.7993C26.6634 45.813 27.914 45.0307 28.934 44.9788C29.9202 44.9286 31.1444 45.5458 32.3869 47.4705C33.6184 49.3782 34.7366 52.394 35.5084 56.639C35.5323 56.7704 35.5581 56.915 35.5861 57.0713C35.8621 58.616 36.3426 61.3049 37.1673 63.6948C37.6202 65.0075 38.2012 66.3051 38.9591 67.2925C39.717 68.2798 40.7625 69.0911 42.1326 69.0911C42.7266 69.0911 43.2204 68.8033 43.5859 68.4955C43.9596 68.1809 44.2987 67.763 44.6043 67.3108C45.2175 66.4034 45.8029 65.196 46.3275 63.9307C47.3808 61.3905 48.2644 58.4311 48.6786 56.6917C49.4915 53.2773 50.2042 44.9584 50.4633 38.7874Z" stroke="#2B2B2B" stroke-width="2"/>
<path d="M32.5915 15.5427V15.0427H32.0915H25.7913H25.2913V15.5427V22.3929H18.4412H17.9412V22.8929V29.193V29.693H18.4412H25.2913V36.5432V37.0432H25.7913H32.0915H32.5915V36.5432V29.693H39.4416H39.9416V29.193V22.8929V22.3929H39.4416H32.5915V15.5427Z" fill="#2B2B2B" stroke="#2B2B2B"/>
</svg>
