<svg xmlns="http://www.w3.org/2000/svg" version="1.1" xmlns:xlink="http://www.w3.org/1999/xlink" xmlns:svgjs="http://svgjs.dev/svgjs" width="47.928646" height="59"><svg fill="none" viewBox="-8.03 -3.82 47.928646 59.000001" version="1.1" id="SvgjsSvg1041" sodipodi:docname="logo copy.svg" width="47.928646" height="59" inkscape:version="1.2 (dc2aeda, 2022-05-15)" xmlns:inkscape="http://www.inkscape.org/namespaces/inkscape" xmlns:sodipodi="http://sodipodi.sourceforge.net/DTD/sodipodi-0.dtd" xmlns="http://www.w3.org/2000/svg" xmlns:svg="http://www.w3.org/2000/svg">
  <defs id="SvgjsDefs1040"></defs>
  <sodipodi:namedview id="SvgjsSodipodi:namedview1039" pagecolor="#ffffff" bordercolor="#000000" borderopacity="0.25" inkscape:showpageshadow="2" inkscape:pageopacity="0.0" inkscape:pagecheckerboard="0" inkscape:deskcolor="#d1d1d1" showgrid="false" inkscape:zoom="3.5208116" inkscape:cx="25.988326" inkscape:cy="31.668834" inkscape:window-width="1507" inkscape:window-height="831" inkscape:window-x="3125" inkscape:window-y="195" inkscape:window-maximized="0" inkscape:current-layer="svg6"></sodipodi:namedview>
  <g id="SvgjsG1038" transform="translate(-4.0296724,-4.02)">
    <path fill="#74f4bb" stroke="#2b2b2b" stroke-width="2" d="m 38.258,32.51 c 2.686,-5.935 3.91,-10.12 4.397,-13.292 0.494,-3.222 0.218,-5.355 -0.009,-7.11 V 12.106 C 42.587,11.65 42.534,11.236 42.496,10.832 42.308,8.8 41.426,6.424 39.844,4.539 38.245,2.633 35.9,1.2 32.845,1.2 29.728,1.2 27.32,2.54 25.263,3.685 l -0.065,0.036 c -1.923,1.07 -3.475,1.909 -5.234,1.909 -1.759,0 -3.31,-0.839 -5.233,-1.909 L 14.665,3.685 C 12.608,2.54 10.201,1.2 7.083,1.2 c -3.056,0 -5.4,1.433 -6.998,3.339 -1.582,1.885 -2.465,4.26 -2.653,6.293 -0.038,0.404 -0.09,0.818 -0.15,1.273 v 0.002 c -0.227,1.756 -0.503,3.89 -0.009,7.11 0.487,3.173 1.712,7.358 4.398,13.294 0.22,5.203 0.82,12.215 1.508,15.106 a 45.01,45.01 0 0 0 1.992,6.132 c 0.444,1.072 0.943,2.102 1.469,2.88 0.262,0.388 0.557,0.753 0.888,1.032 0.322,0.271 0.774,0.539 1.327,0.539 1.309,0 2.277,-0.804 2.95,-1.726 0.677,-0.925 1.179,-2.124 1.556,-3.294 0.637,-1.98 0.988,-4.11 1.16,-5.157 0.031,-0.192 0.057,-0.347 0.077,-0.458 0.601,-3.308 1.505,-5.776 2.515,-7.405 1.03,-1.658 2.046,-2.266 2.832,-2.306 0.751,-0.038 1.74,0.428 2.774,2.031 1.024,1.586 1.962,4.108 2.611,7.68 l 0.066,0.364 c 0.233,1.302 0.64,3.583 1.34,5.612 0.385,1.114 0.881,2.228 1.536,3.08 0.654,0.853 1.577,1.579 2.802,1.579 0.552,0 1.004,-0.268 1.326,-0.54 0.331,-0.278 0.626,-0.643 0.889,-1.031 0.526,-0.778 1.024,-1.808 1.468,-2.88 a 45.001,45.001 0 0 0 1.992,-6.132 c 0.688,-2.891 1.289,-9.903 1.509,-15.106 z" id="SvgjsPath1037"></path>
    <path fill="#2b2b2b" stroke="#2b2b2b" d="m 23.1,12.86 v -0.5 h -6.315 v 6.202 h -6.202 v 6.316 h 6.202 v 6.202 h 6.316 v -6.202 h 6.202 V 18.562 H 23.1 Z" id="SvgjsPath1036"></path>
  </g>
</svg><style>@media (prefers-color-scheme: light) { :root { filter: none; } }
@media (prefers-color-scheme: dark) { :root { filter: none; } }
</style></svg>