<svg width="25" height="25" viewBox="0 0 25 25" fill="none" xmlns="http://www.w3.org/2000/svg">
<g clip-path="url(#clip0_8125_70)">
<path d="M19.98 0.400391H5.98001C3.21901 0.400391 0.980011 2.63939 0.980011 5.40039V19.4004C0.980011 22.1614 3.21901 24.4004 5.98001 24.4004H19.98C22.742 24.4004 24.98 22.1614 24.98 19.4004V5.40039C24.98 2.63939 22.742 0.400391 19.98 0.400391ZM8.98001 19.4004H5.98001V8.40039H8.98001V19.4004ZM7.48001 7.13239C6.51401 7.13239 5.73001 6.34239 5.73001 5.36839C5.73001 4.39439 6.51401 3.60439 7.48001 3.60439C8.44601 3.60439 9.23001 4.39439 9.23001 5.36839C9.23001 6.34239 8.44701 7.13239 7.48001 7.13239ZM20.98 19.4004H17.98V13.7964C17.98 10.4284 13.98 10.6834 13.98 13.7964V19.4004H10.98V8.40039H13.98V10.1654C15.376 7.57939 20.98 7.38839 20.98 12.6414V19.4004Z" fill="#F7F7FF"/>
</g>
<defs>
<clipPath id="clip0_8125_70">
<rect width="24" height="24" fill="white" transform="translate(0.980011 0.400391)"/>
</clipPath>
</defs>
</svg>
